<svg xmlns="http://www.w3.org/2000/svg" version="1.2" viewBox="0 0 1000 1000" width="1000" height="1000">
    <title>CloseBarLogoSVG (1)-svg-svg</title>
    <path id="Layer copy" fill="#5dc6f3" d="m436.2 284.2c1.2 30 1.8 88.3-6.2 123.3-8.6 38.1-92 75.5-116.6 98.2 60.2 25.8 101.3 50.3 116.6 84.1 2.5 27.6 3.1 212.4 0 235.1-6.1 14.7-44.8 38-85.9 61.3-1.2 0.7-30.7 16-52.2 32-60.1 42.9-56.4 40.5-55.2 15.9 0-14.1-0.6-115.4 1.9-128.9 2.4-12.9 33.1-43.5 38-47.8 17.8-16 90.8-45.5 91.5-54.1 0-1.8-70-32.5-106.8-64.4-13.5-11.7-21.5-53.4-21.5-53.4 0 0-3.1-172.5-3.1-175.5 4.9-26.4 27.6-53.4 46-63.9 4.3-2.4 12.3-8.5 23.4-14.1 96.3-50.3 117.2-70.5 117.2-70.5 0 0 17.2-20.3 12.9 22.7zm319.1-208.7c1.3 30.1 1.9 88.4-6.1 123.3-8.6 38.1-92.1 75.5-116.6 98.2 60.1 25.8 101.2 50.4 116.6 84.1 2.4 27.7 3.1 212.4 0 235.1-6.1 14.7-44.8 38-85.9 61.4-1.3 0.6-30.7 15.9-52.2 31.9-60.2 42.9-56.5 40.5-55.2 15.9 0-14.1-0.7-115.3 1.8-128.8 2.5-12.9 33.1-43.6 38.1-47.9 17.8-16 90.8-45.4 91.4-54 0-1.9-70-32.6-106.8-64.5-13.5-11.6-21.5-53.4-21.5-53.4 0 0-3-172.4-3-175.5 4.9-26.4 27.6-53.4 46-63.8 4.3-2.5 12.3-8.6 23.3-14.1 96.4-50.4 117.2-70.6 117.2-70.6 0 0 17.2-20.3 12.9 22.7zm-257.7 896.7c-30.6 0-55.3-24.7-55.3-55.3 0-30.5 24.7-55.2 55.3-55.2 30.5 0 55.2 24.7 55.2 55.2 0 30.6-24.7 55.3-55.2 55.3zm245.5-116.6c-30.6 0-55.3-24.7-55.3-55.3 0-30.5 24.7-55.2 55.3-55.2 30.5 0 55.2 24.7 55.2 55.2 0 30.6-24.7 55.3-55.2 55.3zm-503.3-601.5c-30.6 0-55.3-24.7-55.3-55.3 0-30.5 24.7-55.2 55.3-55.2 30.5 0 55.2 24.7 55.2 55.2 0 30.6-24.7 55.3-55.2 55.3zm255.3-122.8c-29.2 0-52.8-23.3-52.8-52.1 0-28.9 23.6-52.2 52.8-52.2 29.2 0 52.8 23.3 52.8 52.2 0 28.8-23.6 52.1-52.8 52.1zm395.3 314.3c12.2-1.3 61.3 49.7 71.8 73 0 0 1.2 2.5 1.8 5.5 0 2.5 0 4.9-0.6 7.4-3.1 9.2-14.1 20.3-31.3 25.8-22.1-1.9-76.1-67.5-78.6-70.6-8-10.4 24.6-39.9 36.9-41.1zm-816.3 0c12.2-1.3 61.3 49.7 71.8 73 0 0 1.2 2.5 1.8 5.5 0 2.5 0 4.9-0.6 7.4-3.1 9.2-14.1 20.3-31.3 25.8-22.1-1.9-76.1-67.5-78.6-70.6-7.9-10.4 24.6-39.9 36.9-41.1z"/>
</svg>
